<?xml version="1.0" encoding="UTF-8" standalone="no"?>
<!DOCTYPE svg PUBLIC "-//W3C//DTD SVG 1.1//EN"
 "http://www.w3.org/Graphics/SVG/1.1/DTD/svg11.dtd">
<!-- Generated by graphviz version 2.38.0 (20140413.2041)
 -->
<!-- Title: controllers_diagram Pages: 1 -->
<svg width="542pt" height="645pt"
 viewBox="0.00 0.00 541.69 645.00" xmlns="http://www.w3.org/2000/svg" xmlns:xlink="http://www.w3.org/1999/xlink">
<g id="graph0" class="graph" transform="scale(1 1) rotate(0) translate(259.648 369.5)">
<title>controllers_diagram</title>
<polygon fill="white" stroke="none" points="-259.648,275.5 -259.648,-369.5 282.045,-369.5 282.045,275.5 -259.648,275.5"/>
<!-- _diagram_info -->
<g id="node1" class="node"><title>_diagram_info</title>
<text text-anchor="start" x="-87.6877" y="-219.1" font-family="Times,serif" font-size="13.00">Controllers diagram</text>
<text text-anchor="start" x="-87.6877" y="-206.1" font-family="Times,serif" font-size="13.00">Date: Apr 01 2015 &#45; 12:55</text>
<text text-anchor="start" x="-87.6877" y="-193.1" font-family="Times,serif" font-size="13.00">Migration version: 20150319095459</text>
<text text-anchor="start" x="-87.6877" y="-180.1" font-family="Times,serif" font-size="13.00">Generated by RailRoady 1.3.0</text>
<text text-anchor="start" x="-87.6877" y="-167.1" font-family="Times,serif" font-size="13.00">http://railroady.prestonlee.com</text>
</g>
<!-- AdminsController -->
<g id="node2" class="node"><title>AdminsController</title>
<path fill="none" stroke="black" d="M123.955,111C123.955,111 266.045,111 266.045,111 272.045,111 278.045,105 278.045,99 278.045,99 278.045,-93 278.045,-93 278.045,-99 272.045,-105 266.045,-105 266.045,-105 123.955,-105 123.955,-105 117.955,-105 111.955,-99 111.955,-93 111.955,-93 111.955,99 111.955,99 111.955,105 117.955,111 123.955,111"/>
<text text-anchor="middle" x="195" y="-89.8" font-family="Times,serif" font-size="14.00">AdminsController</text>
<polyline fill="none" stroke="black" points="111.955,-83 278.045,-83 "/>
<text text-anchor="start" x="119.955" y="-67.8" font-family="Times,serif" font-size="14.00">admin_statistics_workload</text>
<text text-anchor="start" x="119.955" y="-53.8" font-family="Times,serif" font-size="14.00">admin_update</text>
<text text-anchor="start" x="119.955" y="-39.8" font-family="Times,serif" font-size="14.00">admin_update_name</text>
<text text-anchor="start" x="119.955" y="-25.8" font-family="Times,serif" font-size="14.00">admin_update_password</text>
<text text-anchor="start" x="119.955" y="-11.8" font-family="Times,serif" font-size="14.00">admin_workload_json</text>
<text text-anchor="start" x="119.955" y="2.2" font-family="Times,serif" font-size="14.00">index</text>
<text text-anchor="start" x="119.955" y="16.2" font-family="Times,serif" font-size="14.00">jsonlist</text>
<text text-anchor="start" x="119.955" y="30.2" font-family="Times,serif" font-size="14.00">list</text>
<text text-anchor="start" x="119.955" y="44.2" font-family="Times,serif" font-size="14.00">show</text>
<polyline fill="none" stroke="black" points="111.955,51 278.045,51 "/>
<polyline fill="none" stroke="black" points="111.955,75 278.045,75 "/>
<text text-anchor="start" x="119.955" y="90.2" font-family="Times,serif" font-size="14.00">_layout</text>
<text text-anchor="start" x="119.955" y="104.2" font-family="Times,serif" font-size="14.00">admin_params</text>
</g>
<!-- Api::ApplicationController -->
<g id="node3" class="node"><title>Api::ApplicationController</title>
<path fill="none" stroke="black" d="M-52.2104,-273C-52.2104,-273 92.2104,-273 92.2104,-273 98.2104,-273 104.21,-279 104.21,-285 104.21,-285 104.21,-353 104.21,-353 104.21,-359 98.2104,-365 92.2104,-365 92.2104,-365 -52.2104,-365 -52.2104,-365 -58.2104,-365 -64.2104,-359 -64.2104,-353 -64.2104,-353 -64.2104,-285 -64.2104,-285 -64.2104,-279 -58.2104,-273 -52.2104,-273"/>
<text text-anchor="middle" x="20" y="-349.8" font-family="Times,serif" font-size="14.00">Api::ApplicationController</text>
<polyline fill="none" stroke="black" points="-64.2104,-343 104.21,-343 "/>
<polyline fill="none" stroke="black" points="-64.2104,-319 104.21,-319 "/>
<polyline fill="none" stroke="black" points="-64.2104,-295 104.21,-295 "/>
<text text-anchor="start" x="-56.2104" y="-279.8" font-family="Times,serif" font-size="14.00">_layout</text>
</g>
<!-- Api::UsersController -->
<g id="node4" class="node"><title>Api::UsersController</title>
<path fill="none" stroke="black" d="M-228.104,111C-228.104,111 -117.896,111 -117.896,111 -111.896,111 -105.896,105 -105.896,99 -105.896,99 -105.896,33 -105.896,33 -105.896,27 -111.896,21 -117.896,21 -117.896,21 -228.104,21 -228.104,21 -234.104,21 -240.104,27 -240.104,33 -240.104,33 -240.104,99 -240.104,99 -240.104,105 -234.104,111 -228.104,111"/>
<text text-anchor="middle" x="-173" y="36.2" font-family="Times,serif" font-size="14.00">Api::UsersController</text>
<polyline fill="none" stroke="black" points="-240.104,43 -105.896,43 "/>
<text text-anchor="start" x="-232.104" y="58.2" font-family="Times,serif" font-size="14.00">create</text>
<polyline fill="none" stroke="black" points="-240.104,65 -105.896,65 "/>
<polyline fill="none" stroke="black" points="-240.104,89 -105.896,89 "/>
<text text-anchor="start" x="-232.104" y="104.2" font-family="Times,serif" font-size="14.00">_layout</text>
</g>
<!-- ApplicationController -->
<g id="node5" class="node"><title>ApplicationController</title>
<path fill="none" stroke="black" d="M-243.648,-17C-243.648,-17 -116.352,-17 -116.352,-17 -110.352,-17 -104.352,-23 -104.352,-29 -104.352,-29 -104.352,-109 -104.352,-109 -104.352,-115 -110.352,-121 -116.352,-121 -116.352,-121 -243.648,-121 -243.648,-121 -249.648,-121 -255.648,-115 -255.648,-109 -255.648,-109 -255.648,-29 -255.648,-29 -255.648,-23 -249.648,-17 -243.648,-17"/>
<text text-anchor="middle" x="-180" y="-105.8" font-family="Times,serif" font-size="14.00">ApplicationController</text>
<polyline fill="none" stroke="black" points="-255.648,-99 -104.352,-99 "/>
<text text-anchor="start" x="-247.648" y="-83.8" font-family="Times,serif" font-size="14.00">after_sign_in_path_for</text>
<text text-anchor="start" x="-247.648" y="-69.8" font-family="Times,serif" font-size="14.00">after_sign_out_path_for</text>
<polyline fill="none" stroke="black" points="-255.648,-63 -104.352,-63 "/>
<polyline fill="none" stroke="black" points="-255.648,-39 -104.352,-39 "/>
<text text-anchor="start" x="-247.648" y="-23.8" font-family="Times,serif" font-size="14.00">_layout</text>
</g>
<!-- BaseRegionsController -->
<g id="node6" class="node"><title>BaseRegionsController</title>
<path fill="none" stroke="black" d="M123.676,255C123.676,255 246.324,255 246.324,255 252.324,255 258.324,249 258.324,243 258.324,243 258.324,149 258.324,149 258.324,143 252.324,137 246.324,137 246.324,137 123.676,137 123.676,137 117.676,137 111.676,143 111.676,149 111.676,149 111.676,243 111.676,243 111.676,249 117.676,255 123.676,255"/>
<text text-anchor="middle" x="185" y="152.2" font-family="Times,serif" font-size="14.00">BaseRegionsController</text>
<polyline fill="none" stroke="black" points="111.676,159 258.324,159 "/>
<text text-anchor="start" x="119.676" y="174.2" font-family="Times,serif" font-size="14.00">get_cities</text>
<text text-anchor="start" x="119.676" y="188.2" font-family="Times,serif" font-size="14.00">get_city</text>
<text text-anchor="start" x="119.676" y="202.2" font-family="Times,serif" font-size="14.00">get_provinces</text>
<polyline fill="none" stroke="black" points="111.676,209 258.324,209 "/>
<polyline fill="none" stroke="black" points="111.676,233 258.324,233 "/>
<text text-anchor="start" x="119.676" y="248.2" font-family="Times,serif" font-size="14.00">_layout</text>
</g>
<!-- BusinessesController -->
<g id="node7" class="node"><title>BusinessesController</title>
<path fill="none" stroke="black" d="M-67.5967,143C-67.5967,143 63.5967,143 63.5967,143 69.5967,143 75.5967,137 75.5967,131 75.5967,131 75.5967,-117 75.5967,-117 75.5967,-123 69.5967,-129 63.5967,-129 63.5967,-129 -67.5967,-129 -67.5967,-129 -73.5967,-129 -79.5967,-123 -79.5967,-117 -79.5967,-117 -79.5967,131 -79.5967,131 -79.5967,137 -73.5967,143 -67.5967,143"/>
<text text-anchor="middle" x="-2" y="-113.8" font-family="Times,serif" font-size="14.00">BusinessesController</text>
<polyline fill="none" stroke="black" points="-79.5967,-107 75.5967,-107 "/>
<text text-anchor="start" x="-71.5967" y="-91.8" font-family="Times,serif" font-size="14.00">admin_update</text>
<text text-anchor="start" x="-71.5967" y="-77.8" font-family="Times,serif" font-size="14.00">admin_update_name</text>
<text text-anchor="start" x="-71.5967" y="-63.8" font-family="Times,serif" font-size="14.00">admin_update_password</text>
<text text-anchor="start" x="-71.5967" y="-49.8" font-family="Times,serif" font-size="14.00">index</text>
<text text-anchor="start" x="-71.5967" y="-35.8" font-family="Times,serif" font-size="14.00">json_list</text>
<text text-anchor="start" x="-71.5967" y="-21.8" font-family="Times,serif" font-size="14.00">json_statistics</text>
<text text-anchor="start" x="-71.5967" y="-7.8" font-family="Times,serif" font-size="14.00">json_status_list</text>
<text text-anchor="start" x="-71.5967" y="6.2" font-family="Times,serif" font-size="14.00">list</text>
<text text-anchor="start" x="-71.5967" y="20.2" font-family="Times,serif" font-size="14.00">pass</text>
<text text-anchor="start" x="-71.5967" y="34.2" font-family="Times,serif" font-size="14.00">show</text>
<text text-anchor="start" x="-71.5967" y="48.2" font-family="Times,serif" font-size="14.00">statistics</text>
<text text-anchor="start" x="-71.5967" y="62.2" font-family="Times,serif" font-size="14.00">status_list</text>
<text text-anchor="start" x="-71.5967" y="76.2" font-family="Times,serif" font-size="14.00">test</text>
<text text-anchor="start" x="-71.5967" y="90.2" font-family="Times,serif" font-size="14.00">upload</text>
<polyline fill="none" stroke="black" points="-79.5967,97 75.5967,97 "/>
<polyline fill="none" stroke="black" points="-79.5967,121 75.5967,121 "/>
<text text-anchor="start" x="-71.5967" y="136.2" font-family="Times,serif" font-size="14.00">_layout</text>
</g>
<!-- OrdersController -->
<g id="node8" class="node"><title>OrdersController</title>
<path fill="none" stroke="black" d="M-83.8208,271C-83.8208,271 3.8208,271 3.8208,271 9.8208,271 15.8208,265 15.8208,259 15.8208,259 15.8208,193 15.8208,193 15.8208,187 9.8208,181 3.8208,181 3.8208,181 -83.8208,181 -83.8208,181 -89.8208,181 -95.8208,187 -95.8208,193 -95.8208,193 -95.8208,259 -95.8208,259 -95.8208,265 -89.8208,271 -83.8208,271"/>
<text text-anchor="middle" x="-40" y="196.2" font-family="Times,serif" font-size="14.00">OrdersController</text>
<polyline fill="none" stroke="black" points="-95.8208,203 15.8208,203 "/>
<text text-anchor="start" x="-87.8208" y="218.2" font-family="Times,serif" font-size="14.00">statistics</text>
<polyline fill="none" stroke="black" points="-95.8208,225 15.8208,225 "/>
<polyline fill="none" stroke="black" points="-95.8208,249 15.8208,249 "/>
<text text-anchor="start" x="-87.8208" y="264.2" font-family="Times,serif" font-size="14.00">_layout</text>
</g>
<!-- ScenicsController -->
<g id="node9" class="node"><title>ScenicsController</title>
<path fill="none" stroke="black" d="M-228.155,-241C-228.155,-241 -135.845,-241 -135.845,-241 -129.845,-241 -123.845,-247 -123.845,-253 -123.845,-253 -123.845,-333 -123.845,-333 -123.845,-339 -129.845,-345 -135.845,-345 -135.845,-345 -228.155,-345 -228.155,-345 -234.155,-345 -240.155,-339 -240.155,-333 -240.155,-333 -240.155,-253 -240.155,-253 -240.155,-247 -234.155,-241 -228.155,-241"/>
<text text-anchor="middle" x="-182" y="-329.8" font-family="Times,serif" font-size="14.00">ScenicsController</text>
<polyline fill="none" stroke="black" points="-240.155,-323 -123.845,-323 "/>
<text text-anchor="start" x="-232.155" y="-307.8" font-family="Times,serif" font-size="14.00">scenics_option</text>
<text text-anchor="start" x="-232.155" y="-293.8" font-family="Times,serif" font-size="14.00">select</text>
<polyline fill="none" stroke="black" points="-240.155,-287 -123.845,-287 "/>
<polyline fill="none" stroke="black" points="-240.155,-263 -123.845,-263 "/>
<text text-anchor="start" x="-232.155" y="-247.8" font-family="Times,serif" font-size="14.00">_layout</text>
</g>
<!-- TicketsController -->
<g id="node10" class="node"><title>TicketsController</title>
<path fill="none" stroke="black" d="M155.867,-145C155.867,-145 246.133,-145 246.133,-145 252.133,-145 258.133,-151 258.133,-157 258.133,-157 258.133,-321 258.133,-321 258.133,-327 252.133,-333 246.133,-333 246.133,-333 155.867,-333 155.867,-333 149.867,-333 143.867,-327 143.867,-321 143.867,-321 143.867,-157 143.867,-157 143.867,-151 149.867,-145 155.867,-145"/>
<text text-anchor="middle" x="201" y="-317.8" font-family="Times,serif" font-size="14.00">TicketsController</text>
<polyline fill="none" stroke="black" points="143.867,-311 258.133,-311 "/>
<text text-anchor="start" x="151.867" y="-295.8" font-family="Times,serif" font-size="14.00">admin_update</text>
<text text-anchor="start" x="151.867" y="-281.8" font-family="Times,serif" font-size="14.00">json_status_list</text>
<text text-anchor="start" x="151.867" y="-267.8" font-family="Times,serif" font-size="14.00">pass</text>
<text text-anchor="start" x="151.867" y="-253.8" font-family="Times,serif" font-size="14.00">status_list</text>
<text text-anchor="start" x="151.867" y="-239.8" font-family="Times,serif" font-size="14.00">tickets_json_list</text>
<text text-anchor="start" x="151.867" y="-225.8" font-family="Times,serif" font-size="14.00">tickets_list</text>
<text text-anchor="start" x="151.867" y="-211.8" font-family="Times,serif" font-size="14.00">tickets_option</text>
<polyline fill="none" stroke="black" points="143.867,-205 258.133,-205 "/>
<polyline fill="none" stroke="black" points="143.867,-181 258.133,-181 "/>
<text text-anchor="start" x="151.867" y="-165.8" font-family="Times,serif" font-size="14.00">_layout</text>
<text text-anchor="start" x="151.867" y="-151.8" font-family="Times,serif" font-size="14.00">ticket_params</text>
</g>
<!-- UsersController -->
<g id="node11" class="node"><title>UsersController</title>
<path fill="none" stroke="black" d="M-227.714,239C-227.714,239 -146.286,239 -146.286,239 -140.286,239 -134.286,233 -134.286,227 -134.286,227 -134.286,159 -134.286,159 -134.286,153 -140.286,147 -146.286,147 -146.286,147 -227.714,147 -227.714,147 -233.714,147 -239.714,153 -239.714,159 -239.714,159 -239.714,227 -239.714,227 -239.714,233 -233.714,239 -227.714,239"/>
<text text-anchor="middle" x="-187" y="162.2" font-family="Times,serif" font-size="14.00">UsersController</text>
<polyline fill="none" stroke="black" points="-239.714,169 -134.286,169 "/>
<polyline fill="none" stroke="black" points="-239.714,193 -134.286,193 "/>
<polyline fill="none" stroke="black" points="-239.714,217 -134.286,217 "/>
<text text-anchor="start" x="-231.714" y="232.2" font-family="Times,serif" font-size="14.00">_layout</text>
</g>
</g>
</svg>
