<?xml version="1.0" encoding="UTF-8" standalone="no"?>
<!DOCTYPE svg PUBLIC "-//W3C//DTD SVG 1.1//EN"
 "http://www.w3.org/Graphics/SVG/1.1/DTD/svg11.dtd">
<!-- Generated by graphviz version 2.38.0 (20140413.2041)
 -->
<!-- Title: models_diagram Pages: 1 -->
<svg width="775pt" height="1052pt"
 viewBox="0.00 0.00 775.22 1052.00" xmlns="http://www.w3.org/2000/svg" xmlns:xlink="http://www.w3.org/1999/xlink">
<g id="graph0" class="graph" transform="scale(1 1) rotate(0) translate(4 1048)">
<title>models_diagram</title>
<polygon fill="white" stroke="none" points="-4,4 -4,-1048 771.219,-1048 771.219,4 -4,4"/>
<!-- _diagram_info -->
<g id="node1" class="node"><title>_diagram_info</title>
<text text-anchor="start" x="26.6324" y="-952.6" font-family="Times,serif" font-size="13.00">Models diagram</text>
<text text-anchor="start" x="26.6324" y="-939.6" font-family="Times,serif" font-size="13.00">Date: Apr 01 2015 &#45; 12:55</text>
<text text-anchor="start" x="26.6324" y="-926.6" font-family="Times,serif" font-size="13.00">Migration version: 20150319095459</text>
<text text-anchor="start" x="26.6324" y="-913.6" font-family="Times,serif" font-size="13.00">Generated by RailRoady 1.3.0</text>
<text text-anchor="start" x="26.6324" y="-900.6" font-family="Times,serif" font-size="13.00">http://railroady.prestonlee.com</text>
</g>
<!-- Admin -->
<g id="node2" class="node"><title>Admin</title>
<path fill="none" stroke="black" d="M256.042,-817.5C256.042,-817.5 436.598,-817.5 436.598,-817.5 442.598,-817.5 448.598,-823.5 448.598,-829.5 448.598,-829.5 448.598,-1031.5 448.598,-1031.5 448.598,-1037.5 442.598,-1043.5 436.598,-1043.5 436.598,-1043.5 256.042,-1043.5 256.042,-1043.5 250.042,-1043.5 244.042,-1037.5 244.042,-1031.5 244.042,-1031.5 244.042,-829.5 244.042,-829.5 244.042,-823.5 250.042,-817.5 256.042,-817.5"/>
<text text-anchor="middle" x="346.32" y="-1028.3" font-family="Times,serif" font-size="14.00">Admin</text>
<polyline fill="none" stroke="black" points="244.042,-1021.5 448.598,-1021.5 "/>
<text text-anchor="start" x="252.042" y="-1006.3" font-family="Times,serif" font-size="14.00">id :integer</text>
<text text-anchor="start" x="252.042" y="-992.3" font-family="Times,serif" font-size="14.00">created_at :datetime</text>
<text text-anchor="start" x="252.042" y="-978.3" font-family="Times,serif" font-size="14.00">updated_at :datetime</text>
<text text-anchor="start" x="252.042" y="-964.3" font-family="Times,serif" font-size="14.00">email :string</text>
<text text-anchor="start" x="252.042" y="-950.3" font-family="Times,serif" font-size="14.00">encrypted_password :string</text>
<text text-anchor="start" x="252.042" y="-936.3" font-family="Times,serif" font-size="14.00">reset_password_token :string</text>
<text text-anchor="start" x="252.042" y="-922.3" font-family="Times,serif" font-size="14.00">reset_password_sent_at :datetime</text>
<text text-anchor="start" x="252.042" y="-908.3" font-family="Times,serif" font-size="14.00">remember_created_at :datetime</text>
<text text-anchor="start" x="252.042" y="-894.3" font-family="Times,serif" font-size="14.00">sign_in_count :integer</text>
<text text-anchor="start" x="252.042" y="-880.3" font-family="Times,serif" font-size="14.00">current_sign_in_at :datetime</text>
<text text-anchor="start" x="252.042" y="-866.3" font-family="Times,serif" font-size="14.00">last_sign_in_at :datetime</text>
<text text-anchor="start" x="252.042" y="-852.3" font-family="Times,serif" font-size="14.00">current_sign_in_ip :string</text>
<text text-anchor="start" x="252.042" y="-838.3" font-family="Times,serif" font-size="14.00">last_sign_in_ip :string</text>
<text text-anchor="start" x="252.042" y="-824.3" font-family="Times,serif" font-size="14.00">name :string</text>
</g>
<!-- Business -->
<g id="node4" class="node"><title>Business</title>
<path fill="none" stroke="black" d="M256.042,-484.5C256.042,-484.5 436.598,-484.5 436.598,-484.5 442.598,-484.5 448.598,-490.5 448.598,-496.5 448.598,-496.5 448.598,-768.5 448.598,-768.5 448.598,-774.5 442.598,-780.5 436.598,-780.5 436.598,-780.5 256.042,-780.5 256.042,-780.5 250.042,-780.5 244.042,-774.5 244.042,-768.5 244.042,-768.5 244.042,-496.5 244.042,-496.5 244.042,-490.5 250.042,-484.5 256.042,-484.5"/>
<text text-anchor="middle" x="346.32" y="-765.3" font-family="Times,serif" font-size="14.00">Business</text>
<polyline fill="none" stroke="black" points="244.042,-758.5 448.598,-758.5 "/>
<text text-anchor="start" x="252.042" y="-743.3" font-family="Times,serif" font-size="14.00">id :integer</text>
<text text-anchor="start" x="252.042" y="-729.3" font-family="Times,serif" font-size="14.00">name :string</text>
<text text-anchor="start" x="252.042" y="-715.3" font-family="Times,serif" font-size="14.00">operating_license :string</text>
<text text-anchor="start" x="252.042" y="-701.3" font-family="Times,serif" font-size="14.00">legal_person_name :string</text>
<text text-anchor="start" x="252.042" y="-687.3" font-family="Times,serif" font-size="14.00">legal_person_photo :string</text>
<text text-anchor="start" x="252.042" y="-673.3" font-family="Times,serif" font-size="14.00">business_status :integer</text>
<text text-anchor="start" x="252.042" y="-659.3" font-family="Times,serif" font-size="14.00">admin_id :integer</text>
<text text-anchor="start" x="252.042" y="-645.3" font-family="Times,serif" font-size="14.00">created_at :datetime</text>
<text text-anchor="start" x="252.042" y="-631.3" font-family="Times,serif" font-size="14.00">updated_at :datetime</text>
<text text-anchor="start" x="252.042" y="-617.3" font-family="Times,serif" font-size="14.00">email :string</text>
<text text-anchor="start" x="252.042" y="-603.3" font-family="Times,serif" font-size="14.00">encrypted_password :string</text>
<text text-anchor="start" x="252.042" y="-589.3" font-family="Times,serif" font-size="14.00">reset_password_token :string</text>
<text text-anchor="start" x="252.042" y="-575.3" font-family="Times,serif" font-size="14.00">reset_password_sent_at :datetime</text>
<text text-anchor="start" x="252.042" y="-561.3" font-family="Times,serif" font-size="14.00">remember_created_at :datetime</text>
<text text-anchor="start" x="252.042" y="-547.3" font-family="Times,serif" font-size="14.00">sign_in_count :integer</text>
<text text-anchor="start" x="252.042" y="-533.3" font-family="Times,serif" font-size="14.00">current_sign_in_at :datetime</text>
<text text-anchor="start" x="252.042" y="-519.3" font-family="Times,serif" font-size="14.00">last_sign_in_at :datetime</text>
<text text-anchor="start" x="252.042" y="-505.3" font-family="Times,serif" font-size="14.00">current_sign_in_ip :string</text>
<text text-anchor="start" x="252.042" y="-491.3" font-family="Times,serif" font-size="14.00">last_sign_in_ip :string</text>
</g>
<!-- Admin&#45;&gt;Business -->
<g id="edge2" class="edge"><title>Admin&#45;&gt;Business</title>
<path fill="none" stroke="#67e53d" d="M346.32,-809.011C346.32,-803.031 346.32,-796.987 346.32,-790.923"/>
<ellipse fill="none" stroke="#67e53d" cx="346.32" cy="-813.173" rx="4" ry="4"/>
<polygon fill="#67e53d" stroke="#67e53d" points="346.32,-790.705 350.82,-780.705 346.32,-785.705 346.32,-780.705 346.32,-780.705 346.32,-780.705 346.32,-785.705 341.82,-780.705 346.32,-790.705 346.32,-790.705"/>
</g>
<!-- Role -->
<g id="node7" class="node"><title>Role</title>
<path fill="none" stroke="black" d="M645.422,-575.5C645.422,-575.5 755.219,-575.5 755.219,-575.5 761.219,-575.5 767.219,-581.5 767.219,-587.5 767.219,-587.5 767.219,-677.5 767.219,-677.5 767.219,-683.5 761.219,-689.5 755.219,-689.5 755.219,-689.5 645.422,-689.5 645.422,-689.5 639.422,-689.5 633.422,-683.5 633.422,-677.5 633.422,-677.5 633.422,-587.5 633.422,-587.5 633.422,-581.5 639.422,-575.5 645.422,-575.5"/>
<text text-anchor="middle" x="700.32" y="-674.3" font-family="Times,serif" font-size="14.00">Role</text>
<polyline fill="none" stroke="black" points="633.422,-667.5 767.219,-667.5 "/>
<text text-anchor="start" x="641.422" y="-652.3" font-family="Times,serif" font-size="14.00">id :integer</text>
<text text-anchor="start" x="641.422" y="-638.3" font-family="Times,serif" font-size="14.00">name :string</text>
<text text-anchor="start" x="641.422" y="-624.3" font-family="Times,serif" font-size="14.00">resource_id :integer</text>
<text text-anchor="start" x="641.422" y="-610.3" font-family="Times,serif" font-size="14.00">resource_type :string</text>
<text text-anchor="start" x="641.422" y="-596.3" font-family="Times,serif" font-size="14.00">created_at :datetime</text>
<text text-anchor="start" x="641.422" y="-582.3" font-family="Times,serif" font-size="14.00">updated_at :datetime</text>
</g>
<!-- Admin&#45;&gt;Role -->
<g id="edge1" class="edge"><title>Admin&#45;&gt;Role</title>
<path fill="none" stroke="#738390" d="M457.817,-817.354C527.201,-784.127 566.517,-825.278 624.32,-781 650.94,-760.609 669.065,-728.266 680.916,-699.056"/>
<polygon fill="#738390" stroke="#738390" points="457.631,-817.45 446.681,-818.039 453.189,-819.744 448.746,-822.038 448.746,-822.038 448.746,-822.038 453.189,-819.744 450.811,-826.036 457.631,-817.45 457.631,-817.45"/>
<polygon fill="#738390" stroke="#738390" points="680.929,-699.024 688.742,-691.329 682.738,-694.363 684.547,-689.701 684.547,-689.701 684.547,-689.701 682.738,-694.363 680.351,-688.073 680.929,-699.024 680.929,-699.024"/>
</g>
<!-- Ticket -->
<g id="node10" class="node"><title>Ticket</title>
<path fill="none" stroke="black" d="M251.146,-0.5C251.146,-0.5 369.494,-0.5 369.494,-0.5 375.494,-0.5 381.494,-6.5 381.494,-12.5 381.494,-12.5 381.494,-214.5 381.494,-214.5 381.494,-220.5 375.494,-226.5 369.494,-226.5 369.494,-226.5 251.146,-226.5 251.146,-226.5 245.146,-226.5 239.146,-220.5 239.146,-214.5 239.146,-214.5 239.146,-12.5 239.146,-12.5 239.146,-6.5 245.146,-0.5 251.146,-0.5"/>
<text text-anchor="middle" x="310.32" y="-211.3" font-family="Times,serif" font-size="14.00">Ticket</text>
<polyline fill="none" stroke="black" points="239.146,-204.5 381.494,-204.5 "/>
<text text-anchor="start" x="247.146" y="-189.3" font-family="Times,serif" font-size="14.00">id :integer</text>
<text text-anchor="start" x="247.146" y="-175.3" font-family="Times,serif" font-size="14.00">name :string</text>
<text text-anchor="start" x="247.146" y="-161.3" font-family="Times,serif" font-size="14.00">price :float</text>
<text text-anchor="start" x="247.146" y="-147.3" font-family="Times,serif" font-size="14.00">scenic_id :integer</text>
<text text-anchor="start" x="247.146" y="-133.3" font-family="Times,serif" font-size="14.00">picture :string</text>
<text text-anchor="start" x="247.146" y="-119.3" font-family="Times,serif" font-size="14.00">description :text</text>
<text text-anchor="start" x="247.146" y="-105.3" font-family="Times,serif" font-size="14.00">ticket_type_id :integer</text>
<text text-anchor="start" x="247.146" y="-91.3" font-family="Times,serif" font-size="14.00">status :integer</text>
<text text-anchor="start" x="247.146" y="-77.3" font-family="Times,serif" font-size="14.00">admin_id :integer</text>
<text text-anchor="start" x="247.146" y="-63.3" font-family="Times,serif" font-size="14.00">business_id :integer</text>
<text text-anchor="start" x="247.146" y="-49.3" font-family="Times,serif" font-size="14.00">created_at :datetime</text>
<text text-anchor="start" x="247.146" y="-35.3" font-family="Times,serif" font-size="14.00">updated_at :datetime</text>
<text text-anchor="start" x="247.146" y="-21.3" font-family="Times,serif" font-size="14.00">province :string</text>
<text text-anchor="start" x="247.146" y="-7.3" font-family="Times,serif" font-size="14.00">city :string</text>
</g>
<!-- Admin&#45;&gt;Ticket -->
<g id="edge3" class="edge"><title>Admin&#45;&gt;Ticket</title>
<path fill="none" stroke="#044dc8" d="M236.932,-817.918C236.395,-817.609 235.858,-817.303 235.32,-817 174.81,-782.967 126.384,-835.454 83.3201,-781 -59.8302,-599.985 1.52014,-461.448 119.32,-263 145.532,-218.844 190.267,-182.995 229.857,-157.589"/>
<ellipse fill="none" stroke="#044dc8" cx="240.431" cy="-820.042" rx="4.00002" ry="4.00002"/>
<polygon fill="#044dc8" stroke="#044dc8" points="230.275,-157.327 241.136,-155.815 234.508,-154.666 238.741,-152.005 238.741,-152.005 238.741,-152.005 234.508,-154.666 236.346,-148.195 230.275,-157.327 230.275,-157.327"/>
</g>
<!-- BaseRegion -->
<g id="node3" class="node"><title>BaseRegion</title>
<path fill="none" stroke="black" d="M478.815,-838.5C478.815,-838.5 587.826,-838.5 587.826,-838.5 593.826,-838.5 599.826,-844.5 599.826,-850.5 599.826,-850.5 599.826,-1010.5 599.826,-1010.5 599.826,-1016.5 593.826,-1022.5 587.826,-1022.5 587.826,-1022.5 478.815,-1022.5 478.815,-1022.5 472.815,-1022.5 466.815,-1016.5 466.815,-1010.5 466.815,-1010.5 466.815,-850.5 466.815,-850.5 466.815,-844.5 472.815,-838.5 478.815,-838.5"/>
<text text-anchor="middle" x="533.32" y="-1007.3" font-family="Times,serif" font-size="14.00">BaseRegion</text>
<polyline fill="none" stroke="black" points="466.815,-1000.5 599.826,-1000.5 "/>
<text text-anchor="start" x="474.815" y="-985.3" font-family="Times,serif" font-size="14.00">id :integer</text>
<text text-anchor="start" x="474.815" y="-971.3" font-family="Times,serif" font-size="14.00">parentid :integer</text>
<text text-anchor="start" x="474.815" y="-957.3" font-family="Times,serif" font-size="14.00">name :string</text>
<text text-anchor="start" x="474.815" y="-943.3" font-family="Times,serif" font-size="14.00">code :string</text>
<text text-anchor="start" x="474.815" y="-929.3" font-family="Times,serif" font-size="14.00">parent :string</text>
<text text-anchor="start" x="474.815" y="-915.3" font-family="Times,serif" font-size="14.00">region_type :integer</text>
<text text-anchor="start" x="474.815" y="-901.3" font-family="Times,serif" font-size="14.00">status :integer</text>
<text text-anchor="start" x="474.815" y="-887.3" font-family="Times,serif" font-size="14.00">iscity :integer</text>
<text text-anchor="start" x="474.815" y="-873.3" font-family="Times,serif" font-size="14.00">pingyin :string</text>
<text text-anchor="start" x="474.815" y="-859.3" font-family="Times,serif" font-size="14.00">created_at :datetime</text>
<text text-anchor="start" x="474.815" y="-845.3" font-family="Times,serif" font-size="14.00">updated_at :datetime</text>
</g>
<!-- Order -->
<g id="node5" class="node"><title>Order</title>
<path fill="none" stroke="black" d="M350.815,-277.5C350.815,-277.5 459.826,-277.5 459.826,-277.5 465.826,-277.5 471.826,-283.5 471.826,-289.5 471.826,-289.5 471.826,-421.5 471.826,-421.5 471.826,-427.5 465.826,-433.5 459.826,-433.5 459.826,-433.5 350.815,-433.5 350.815,-433.5 344.815,-433.5 338.815,-427.5 338.815,-421.5 338.815,-421.5 338.815,-289.5 338.815,-289.5 338.815,-283.5 344.815,-277.5 350.815,-277.5"/>
<text text-anchor="middle" x="405.32" y="-418.3" font-family="Times,serif" font-size="14.00">Order</text>
<polyline fill="none" stroke="black" points="338.815,-411.5 471.826,-411.5 "/>
<text text-anchor="start" x="346.815" y="-396.3" font-family="Times,serif" font-size="14.00">id :integer</text>
<text text-anchor="start" x="346.815" y="-382.3" font-family="Times,serif" font-size="14.00">user_id :integer</text>
<text text-anchor="start" x="346.815" y="-368.3" font-family="Times,serif" font-size="14.00">money :float</text>
<text text-anchor="start" x="346.815" y="-354.3" font-family="Times,serif" font-size="14.00">ticket_id :integer</text>
<text text-anchor="start" x="346.815" y="-340.3" font-family="Times,serif" font-size="14.00">business_id :integer</text>
<text text-anchor="start" x="346.815" y="-326.3" font-family="Times,serif" font-size="14.00">status :integer</text>
<text text-anchor="start" x="346.815" y="-312.3" font-family="Times,serif" font-size="14.00">user_number :string</text>
<text text-anchor="start" x="346.815" y="-298.3" font-family="Times,serif" font-size="14.00">created_at :datetime</text>
<text text-anchor="start" x="346.815" y="-284.3" font-family="Times,serif" font-size="14.00">updated_at :datetime</text>
</g>
<!-- Business&#45;&gt;Order -->
<g id="edge6" class="edge"><title>Business&#45;&gt;Order</title>
<path fill="none" stroke="#d5e989" d="M379.648,-476.158C382.035,-465.031 384.388,-454.063 386.644,-443.551"/>
<ellipse fill="none" stroke="#d5e989" cx="378.732" cy="-480.428" rx="4.00001" ry="4.00001"/>
<polygon fill="#d5e989" stroke="#d5e989" points="386.676,-443.4 393.174,-434.567 387.725,-438.512 388.774,-433.623 388.774,-433.623 388.774,-433.623 387.725,-438.512 384.374,-432.679 386.676,-443.4 386.676,-443.4"/>
</g>
<!-- Scenic -->
<g id="node8" class="node"><title>Scenic</title>
<path fill="none" stroke="black" d="M140.701,-263.5C140.701,-263.5 269.939,-263.5 269.939,-263.5 275.939,-263.5 281.939,-269.5 281.939,-275.5 281.939,-275.5 281.939,-435.5 281.939,-435.5 281.939,-441.5 275.939,-447.5 269.939,-447.5 269.939,-447.5 140.701,-447.5 140.701,-447.5 134.701,-447.5 128.701,-441.5 128.701,-435.5 128.701,-435.5 128.701,-275.5 128.701,-275.5 128.701,-269.5 134.701,-263.5 140.701,-263.5"/>
<text text-anchor="middle" x="205.32" y="-432.3" font-family="Times,serif" font-size="14.00">Scenic</text>
<polyline fill="none" stroke="black" points="128.701,-425.5 281.939,-425.5 "/>
<text text-anchor="start" x="136.701" y="-410.3" font-family="Times,serif" font-size="14.00">id :integer</text>
<text text-anchor="start" x="136.701" y="-396.3" font-family="Times,serif" font-size="14.00">name :string</text>
<text text-anchor="start" x="136.701" y="-382.3" font-family="Times,serif" font-size="14.00">picture :string</text>
<text text-anchor="start" x="136.701" y="-368.3" font-family="Times,serif" font-size="14.00">manager_name :string</text>
<text text-anchor="start" x="136.701" y="-354.3" font-family="Times,serif" font-size="14.00">manager_number :string</text>
<text text-anchor="start" x="136.701" y="-340.3" font-family="Times,serif" font-size="14.00">business_id :integer</text>
<text text-anchor="start" x="136.701" y="-326.3" font-family="Times,serif" font-size="14.00">scenic_type_id :integer</text>
<text text-anchor="start" x="136.701" y="-312.3" font-family="Times,serif" font-size="14.00">start_time :datetime</text>
<text text-anchor="start" x="136.701" y="-298.3" font-family="Times,serif" font-size="14.00">end_time :datetime</text>
<text text-anchor="start" x="136.701" y="-284.3" font-family="Times,serif" font-size="14.00">created_at :datetime</text>
<text text-anchor="start" x="136.701" y="-270.3" font-family="Times,serif" font-size="14.00">updated_at :datetime</text>
</g>
<!-- Business&#45;&gt;Scenic -->
<g id="edge5" class="edge"><title>Business&#45;&gt;Scenic</title>
<path fill="none" stroke="#5a2a3c" d="M267.115,-477.022C263.26,-469.504 259.441,-462.054 255.704,-454.766"/>
<ellipse fill="none" stroke="#5a2a3c" cx="269.042" cy="-480.78" rx="4.00002" ry="4.00002"/>
<ellipse fill="#5a2a3c" stroke="#5a2a3c" cx="253.821" cy="-451.093" rx="4.00002" ry="4.00002"/>
</g>
<!-- Business&#45;&gt;Ticket -->
<g id="edge4" class="edge"><title>Business&#45;&gt;Ticket</title>
<path fill="none" stroke="#a035a0" d="M331.55,-476.263C330.761,-466.702 330.01,-457.223 329.32,-448 324.096,-378.146 319.572,-299.966 316.25,-236.868"/>
<ellipse fill="none" stroke="#a035a0" cx="331.888" cy="-480.323" rx="4" ry="4"/>
<polygon fill="#a035a0" stroke="#a035a0" points="316.25,-236.86 320.221,-226.639 315.989,-231.867 315.728,-226.874 315.728,-226.874 315.728,-226.874 315.989,-231.867 311.234,-227.109 316.25,-236.86 316.25,-236.86"/>
</g>
<!-- Order&#45;&gt;Ticket -->
<g id="edge7" class="edge"><title>Order&#45;&gt;Ticket</title>
<path fill="none" stroke="#a3adfd" d="M371.706,-269.58C367.14,-258.046 362.387,-246.038 357.636,-234.035"/>
<ellipse fill="none" stroke="#a3adfd" cx="373.266" cy="-273.522" rx="4.00001" ry="4.00001"/>
<ellipse fill="#a3adfd" stroke="#a3adfd" cx="356.152" cy="-230.287" rx="4.00001" ry="4.00001"/>
</g>
<!-- ResponseCode -->
<g id="node6" class="node"><title>ResponseCode</title>
<polygon fill="none" stroke="black" points="617.713,-908.5 617.713,-952.5 716.927,-952.5 716.927,-908.5 617.713,-908.5"/>
<text text-anchor="middle" x="667.32" y="-937.3" font-family="Times,serif" font-size="14.00">ResponseCode</text>
<polyline fill="none" stroke="black" points="617.713,-930.5 716.927,-930.5 "/>
<text text-anchor="middle" x="667.32" y="-915.3" font-family="Times,serif" font-size="14.00"> </text>
</g>
<!-- Scenic&#45;&gt;Ticket -->
<g id="edge8" class="edge"><title>Scenic&#45;&gt;Ticket</title>
<path fill="none" stroke="#9e2350" d="M248.403,-256.024C251.331,-249.332 254.299,-242.549 257.269,-235.76"/>
<ellipse fill="none" stroke="#9e2350" cx="246.769" cy="-259.759" rx="4.00002" ry="4.00002"/>
<polygon fill="#9e2350" stroke="#9e2350" points="257.309,-235.668 265.44,-228.31 259.313,-231.087 261.317,-226.507 261.317,-226.507 261.317,-226.507 259.313,-231.087 257.195,-224.703 257.309,-235.668 257.309,-235.668"/>
</g>
<!-- ScenicType -->
<g id="node9" class="node"><title>ScenicType</title>
<path fill="none" stroke="black" d="M104.815,-589.5C104.815,-589.5 213.826,-589.5 213.826,-589.5 219.826,-589.5 225.826,-595.5 225.826,-601.5 225.826,-601.5 225.826,-663.5 225.826,-663.5 225.826,-669.5 219.826,-675.5 213.826,-675.5 213.826,-675.5 104.815,-675.5 104.815,-675.5 98.8148,-675.5 92.8148,-669.5 92.8148,-663.5 92.8148,-663.5 92.8148,-601.5 92.8148,-601.5 92.8148,-595.5 98.8148,-589.5 104.815,-589.5"/>
<text text-anchor="middle" x="159.32" y="-660.3" font-family="Times,serif" font-size="14.00">ScenicType</text>
<polyline fill="none" stroke="black" points="92.8148,-653.5 225.826,-653.5 "/>
<text text-anchor="start" x="100.815" y="-638.3" font-family="Times,serif" font-size="14.00">id :integer</text>
<text text-anchor="start" x="100.815" y="-624.3" font-family="Times,serif" font-size="14.00">name :string</text>
<text text-anchor="start" x="100.815" y="-610.3" font-family="Times,serif" font-size="14.00">created_at :datetime</text>
<text text-anchor="start" x="100.815" y="-596.3" font-family="Times,serif" font-size="14.00">updated_at :datetime</text>
</g>
<!-- ScenicType&#45;&gt;Scenic -->
<g id="edge9" class="edge"><title>ScenicType&#45;&gt;Scenic</title>
<path fill="none" stroke="#a1c6fa" d="M167.729,-581.23C173.506,-546.696 181.374,-499.657 188.419,-457.538"/>
<ellipse fill="none" stroke="#a1c6fa" cx="167.017" cy="-585.489" rx="4.00001" ry="4.00001"/>
<polygon fill="#a1c6fa" stroke="#a1c6fa" points="188.446,-457.375 194.535,-448.254 189.271,-452.443 190.096,-447.512 190.096,-447.512 190.096,-447.512 189.271,-452.443 185.658,-446.769 188.446,-457.375 188.446,-457.375"/>
</g>
<!-- TicketType -->
<g id="node11" class="node"><title>TicketType</title>
<path fill="none" stroke="black" d="M501.815,-305.5C501.815,-305.5 610.826,-305.5 610.826,-305.5 616.826,-305.5 622.826,-311.5 622.826,-317.5 622.826,-317.5 622.826,-393.5 622.826,-393.5 622.826,-399.5 616.826,-405.5 610.826,-405.5 610.826,-405.5 501.815,-405.5 501.815,-405.5 495.815,-405.5 489.815,-399.5 489.815,-393.5 489.815,-393.5 489.815,-317.5 489.815,-317.5 489.815,-311.5 495.815,-305.5 501.815,-305.5"/>
<text text-anchor="middle" x="556.32" y="-390.3" font-family="Times,serif" font-size="14.00">TicketType</text>
<polyline fill="none" stroke="black" points="489.815,-383.5 622.826,-383.5 "/>
<text text-anchor="start" x="497.815" y="-368.3" font-family="Times,serif" font-size="14.00">id :integer</text>
<text text-anchor="start" x="497.815" y="-354.3" font-family="Times,serif" font-size="14.00">name :string</text>
<text text-anchor="start" x="497.815" y="-340.3" font-family="Times,serif" font-size="14.00">discount :float</text>
<text text-anchor="start" x="497.815" y="-326.3" font-family="Times,serif" font-size="14.00">created_at :datetime</text>
<text text-anchor="start" x="497.815" y="-312.3" font-family="Times,serif" font-size="14.00">updated_at :datetime</text>
</g>
<!-- TicketType&#45;&gt;Ticket -->
<g id="edge10" class="edge"><title>TicketType&#45;&gt;Ticket</title>
<path fill="none" stroke="#15c9f4" d="M513.278,-298.906C503.169,-286.736 492.17,-274.163 481.32,-263 452.893,-233.752 419.428,-203.825 389.674,-178.571"/>
<ellipse fill="none" stroke="#15c9f4" cx="515.936" cy="-302.135" rx="4.00002" ry="4.00002"/>
<polygon fill="#15c9f4" stroke="#15c9f4" points="389.434,-178.368 384.696,-168.479 385.613,-175.143 381.793,-171.917 381.793,-171.917 381.793,-171.917 385.613,-175.143 378.89,-175.355 389.434,-178.368 389.434,-178.368"/>
</g>
<!-- User -->
<g id="node12" class="node"><title>User</title>
<path fill="none" stroke="black" d="M479.018,-561.5C479.018,-561.5 603.622,-561.5 603.622,-561.5 609.622,-561.5 615.622,-567.5 615.622,-573.5 615.622,-573.5 615.622,-691.5 615.622,-691.5 615.622,-697.5 609.622,-703.5 603.622,-703.5 603.622,-703.5 479.018,-703.5 479.018,-703.5 473.018,-703.5 467.018,-697.5 467.018,-691.5 467.018,-691.5 467.018,-573.5 467.018,-573.5 467.018,-567.5 473.018,-561.5 479.018,-561.5"/>
<text text-anchor="middle" x="541.32" y="-688.3" font-family="Times,serif" font-size="14.00">User</text>
<polyline fill="none" stroke="black" points="467.018,-681.5 615.622,-681.5 "/>
<text text-anchor="start" x="475.018" y="-666.3" font-family="Times,serif" font-size="14.00">id :integer</text>
<text text-anchor="start" x="475.018" y="-652.3" font-family="Times,serif" font-size="14.00">account :string</text>
<text text-anchor="start" x="475.018" y="-638.3" font-family="Times,serif" font-size="14.00">name :string</text>
<text text-anchor="start" x="475.018" y="-624.3" font-family="Times,serif" font-size="14.00">password_digest :string</text>
<text text-anchor="start" x="475.018" y="-610.3" font-family="Times,serif" font-size="14.00">phone :string</text>
<text text-anchor="start" x="475.018" y="-596.3" font-family="Times,serif" font-size="14.00">user_identity :integer</text>
<text text-anchor="start" x="475.018" y="-582.3" font-family="Times,serif" font-size="14.00">created_at :datetime</text>
<text text-anchor="start" x="475.018" y="-568.3" font-family="Times,serif" font-size="14.00">updated_at :datetime</text>
</g>
<!-- User&#45;&gt;Order -->
<g id="edge11" class="edge"><title>User&#45;&gt;Order</title>
<path fill="none" stroke="#bbe1d2" d="M502.981,-553.976C485.907,-519.451 465.73,-478.653 448.162,-443.128"/>
<ellipse fill="none" stroke="#bbe1d2" cx="504.876" cy="-557.809" rx="4.00002" ry="4.00002"/>
<polygon fill="#bbe1d2" stroke="#bbe1d2" points="447.951,-442.703 447.552,-431.744 445.735,-438.221 443.518,-433.739 443.518,-433.739 443.518,-433.739 445.735,-438.221 439.485,-435.734 447.951,-442.703 447.951,-442.703"/>
</g>
</g>
</svg>
