<?xml version="1.0" encoding="UTF-8" standalone="no"?>
<!DOCTYPE svg PUBLIC "-//W3C//DTD SVG 1.1//EN"
 "http://www.w3.org/Graphics/SVG/1.1/DTD/svg11.dtd">
<!-- Generated by graphviz version 2.38.0 (20140413.2041)
 -->
<!-- Title: models_diagram Pages: 1 -->
<svg width="543pt" height="297pt"
 viewBox="0.00 0.00 543.29 297.00" xmlns="http://www.w3.org/2000/svg" xmlns:xlink="http://www.w3.org/1999/xlink">
<g id="graph0" class="graph" transform="scale(1 1) rotate(0) translate(4 293)">
<title>models_diagram</title>
<polygon fill="white" stroke="none" points="-4,4 -4,-293 539.295,-293 539.295,4 -4,4"/>
<!-- _diagram_info -->
<g id="node1" class="node"><title>_diagram_info</title>
<text text-anchor="start" x="8" y="-274.6" font-family="Times,serif" font-size="13.00">Models diagram</text>
<text text-anchor="start" x="8" y="-261.6" font-family="Times,serif" font-size="13.00">Date: Apr 01 2015 &#45; 12:55</text>
<text text-anchor="start" x="8" y="-248.6" font-family="Times,serif" font-size="13.00">Migration version: 20150319095459</text>
<text text-anchor="start" x="8" y="-235.6" font-family="Times,serif" font-size="13.00">Generated by RailRoady 1.3.0</text>
<text text-anchor="start" x="8" y="-222.6" font-family="Times,serif" font-size="13.00">http://railroady.prestonlee.com</text>
</g>
<!-- Admin -->
<g id="node2" class="node"><title>Admin</title>
<ellipse fill="none" stroke="black" cx="259.688" cy="-252.5" rx="34.8458" ry="18"/>
<text text-anchor="middle" x="259.688" y="-248.3" font-family="Times,serif" font-size="14.00">Admin</text>
</g>
<!-- Business -->
<g id="node4" class="node"><title>Business</title>
<ellipse fill="none" stroke="black" cx="259.688" cy="-162" rx="41.6111" ry="18"/>
<text text-anchor="middle" x="259.688" y="-157.8" font-family="Times,serif" font-size="14.00">Business</text>
</g>
<!-- Admin&#45;&gt;Business -->
<g id="edge2" class="edge"><title>Admin&#45;&gt;Business</title>
<path fill="none" stroke="#486bad" d="M259.688,-226.189C259.688,-214.971 259.688,-201.752 259.688,-190.311"/>
<ellipse fill="none" stroke="#486bad" cx="259.688" cy="-230.436" rx="4" ry="4"/>
<polygon fill="#486bad" stroke="#486bad" points="259.688,-190.011 264.188,-180.011 259.688,-185.011 259.688,-180.011 259.688,-180.011 259.688,-180.011 259.688,-185.011 255.188,-180.011 259.688,-190.011 259.688,-190.011"/>
</g>
<!-- Role -->
<g id="node7" class="node"><title>Role</title>
<ellipse fill="none" stroke="black" cx="418.688" cy="-162" rx="27" ry="18"/>
<text text-anchor="middle" x="418.688" y="-157.8" font-family="Times,serif" font-size="14.00">Role</text>
</g>
<!-- Admin&#45;&gt;Role -->
<g id="edge1" class="edge"><title>Admin&#45;&gt;Role</title>
<path fill="none" stroke="#a18631" d="M284.068,-230.038C290.247,-225.108 297.028,-220.113 303.688,-216 336.517,-195.726 347.686,-196.238 382.688,-180 384.475,-179.171 386.31,-178.316 388.161,-177.451"/>
<polygon fill="#a18631" stroke="#a18631" points="283.794,-230.264 273.217,-233.158 279.937,-233.446 276.081,-236.629 276.081,-236.629 276.081,-236.629 279.937,-233.446 278.945,-240.099 283.794,-230.264 283.794,-230.264"/>
<polygon fill="#a18631" stroke="#a18631" points="388.338,-177.367 399.303,-177.189 392.864,-175.242 397.39,-173.116 397.39,-173.116 397.39,-173.116 392.864,-175.242 395.477,-169.043 388.338,-177.367 388.338,-177.367"/>
</g>
<!-- Ticket -->
<g id="node10" class="node"><title>Ticket</title>
<ellipse fill="none" stroke="black" cx="234.688" cy="-18" rx="32.2768" ry="18"/>
<text text-anchor="middle" x="234.688" y="-13.8" font-family="Times,serif" font-size="14.00">Ticket</text>
</g>
<!-- Admin&#45;&gt;Ticket -->
<g id="edge3" class="edge"><title>Admin&#45;&gt;Ticket</title>
<path fill="none" stroke="#5e0da9" d="M238.3,-230.897C231.76,-225.441 224.278,-219.973 216.688,-216 164.329,-188.598 124.373,-227.106 88.6877,-180 60.9771,-143.421 128.495,-73.1344 129.688,-72 148.935,-53.6953 175.732,-40.3088 197.437,-31.5684"/>
<ellipse fill="none" stroke="#5e0da9" cx="241.48" cy="-233.665" rx="4.00002" ry="4.00002"/>
<polygon fill="#5e0da9" stroke="#5e0da9" points="197.675,-31.4765 208.625,-32.0771 202.34,-29.6775 207.006,-27.8784 207.006,-27.8784 207.006,-27.8784 202.34,-29.6775 205.386,-23.6798 197.675,-31.4765 197.675,-31.4765"/>
</g>
<!-- BaseRegion -->
<g id="node3" class="node"><title>BaseRegion</title>
<ellipse fill="none" stroke="black" cx="365.688" cy="-252.5" rx="52.6865" ry="18"/>
<text text-anchor="middle" x="365.688" y="-248.3" font-family="Times,serif" font-size="14.00">BaseRegion</text>
</g>
<!-- Order -->
<g id="node5" class="node"><title>Order</title>
<ellipse fill="none" stroke="black" cx="293.688" cy="-90" rx="30.9619" ry="18"/>
<text text-anchor="middle" x="293.688" y="-85.8" font-family="Times,serif" font-size="14.00">Order</text>
</g>
<!-- Business&#45;&gt;Order -->
<g id="edge6" class="edge"><title>Business&#45;&gt;Order</title>
<path fill="none" stroke="#54b1d5" d="M271.484,-136.714C274.598,-130.302 277.971,-123.358 281.125,-116.865"/>
<ellipse fill="none" stroke="#54b1d5" cx="269.666" cy="-140.457" rx="4.00002" ry="4.00002"/>
<polygon fill="#54b1d5" stroke="#54b1d5" points="281.164,-116.784 289.581,-109.755 283.349,-112.287 285.533,-107.789 285.533,-107.789 285.533,-107.789 283.349,-112.287 281.485,-105.823 281.164,-116.784 281.164,-116.784"/>
</g>
<!-- Scenic -->
<g id="node8" class="node"><title>Scenic</title>
<ellipse fill="none" stroke="black" cx="172.688" cy="-90" rx="33.8596" ry="18"/>
<text text-anchor="middle" x="172.688" y="-85.8" font-family="Times,serif" font-size="14.00">Scenic</text>
</g>
<!-- Business&#45;&gt;Scenic -->
<g id="edge5" class="edge"><title>Business&#45;&gt;Scenic</title>
<path fill="none" stroke="#1f4ed3" d="M234.219,-140.508C222.527,-131.101 208.723,-119.994 197.156,-110.687"/>
<ellipse fill="none" stroke="#1f4ed3" cx="237.694" cy="-143.304" rx="4.00002" ry="4.00002"/>
<ellipse fill="#1f4ed3" stroke="#1f4ed3" cx="193.753" cy="-107.949" rx="4.00002" ry="4.00002"/>
</g>
<!-- Business&#45;&gt;Ticket -->
<g id="edge4" class="edge"><title>Business&#45;&gt;Ticket</title>
<path fill="none" stroke="#8b5a10" d="M255.274,-135.929C250.836,-110.725 244.018,-71.9942 239.458,-46.0947"/>
<ellipse fill="none" stroke="#8b5a10" cx="255.979" cy="-139.932" rx="4.00001" ry="4.00001"/>
<polygon fill="#8b5a10" stroke="#8b5a10" points="239.448,-46.0378 242.146,-35.409 238.581,-41.1135 237.714,-36.1893 237.714,-36.1893 237.714,-36.1893 238.581,-41.1135 233.282,-36.9696 239.448,-46.0378 239.448,-46.0378"/>
</g>
<!-- Order&#45;&gt;Ticket -->
<g id="edge7" class="edge"><title>Order&#45;&gt;Ticket</title>
<path fill="none" stroke="#0aabc1" d="M275.276,-67.1552C268.161,-58.7146 260.04,-49.0793 252.941,-40.6566"/>
<ellipse fill="none" stroke="#0aabc1" cx="278.016" cy="-70.4062" rx="4.00002" ry="4.00002"/>
<ellipse fill="#0aabc1" stroke="#0aabc1" cx="250.323" cy="-37.5504" rx="4.00002" ry="4.00002"/>
</g>
<!-- ResponseCode -->
<g id="node6" class="node"><title>ResponseCode</title>
<polygon fill="none" stroke="black" points="535.402,-270.5 435.974,-270.5 435.974,-234.5 535.402,-234.5 535.402,-270.5"/>
<text text-anchor="middle" x="485.688" y="-248.3" font-family="Times,serif" font-size="14.00">ResponseCode</text>
</g>
<!-- Scenic&#45;&gt;Ticket -->
<g id="edge8" class="edge"><title>Scenic&#45;&gt;Ticket</title>
<path fill="none" stroke="#89a5b6" d="M191.771,-67.4545C198.849,-59.4626 206.906,-50.3667 214.112,-42.231"/>
<ellipse fill="none" stroke="#89a5b6" cx="189.1" cy="-70.4704" rx="4.00002" ry="4.00002"/>
<polygon fill="#89a5b6" stroke="#89a5b6" points="214.336,-41.9777 224.335,-37.4755 217.651,-38.2348 220.966,-34.4918 220.966,-34.4918 220.966,-34.4918 217.651,-38.2348 217.598,-31.5082 214.336,-41.9777 214.336,-41.9777"/>
</g>
<!-- ScenicType -->
<g id="node9" class="node"><title>ScenicType</title>
<ellipse fill="none" stroke="black" cx="148.688" cy="-162" rx="51.4658" ry="18"/>
<text text-anchor="middle" x="148.688" y="-157.8" font-family="Times,serif" font-size="14.00">ScenicType</text>
</g>
<!-- ScenicType&#45;&gt;Scenic -->
<g id="edge9" class="edge"><title>ScenicType&#45;&gt;Scenic</title>
<path fill="none" stroke="#27b9ee" d="M157.112,-136.431C159.192,-130.362 161.431,-123.833 163.544,-117.67"/>
<ellipse fill="none" stroke="#27b9ee" cx="155.795" cy="-140.271" rx="4.00001" ry="4.00001"/>
<polygon fill="#27b9ee" stroke="#27b9ee" points="163.688,-117.248 171.188,-109.248 165.31,-112.519 166.932,-107.789 166.932,-107.789 166.932,-107.789 165.31,-112.519 162.675,-106.33 163.688,-117.248 163.688,-117.248"/>
</g>
<!-- TicketType -->
<g id="node11" class="node"><title>TicketType</title>
<ellipse fill="none" stroke="black" cx="392.688" cy="-90" rx="49.8826" ry="18"/>
<text text-anchor="middle" x="392.688" y="-85.8" font-family="Times,serif" font-size="14.00">TicketType</text>
</g>
<!-- TicketType&#45;&gt;Ticket -->
<g id="edge10" class="edge"><title>TicketType&#45;&gt;Ticket</title>
<path fill="none" stroke="#8862a8" d="M354.564,-72.1098C328.334,-60.4887 293.805,-45.1911 268.544,-33.9998"/>
<ellipse fill="none" stroke="#8862a8" cx="358.567" cy="-73.883" rx="4.00002" ry="4.00002"/>
<polygon fill="#8862a8" stroke="#8862a8" points="268.496,-33.9786 261.176,-25.8136 263.925,-31.9532 259.354,-29.9279 259.354,-29.9279 259.354,-29.9279 263.925,-31.9532 257.531,-34.0422 268.496,-33.9786 268.496,-33.9786"/>
</g>
<!-- User -->
<g id="node12" class="node"><title>User</title>
<ellipse fill="none" stroke="black" cx="346.688" cy="-162" rx="27" ry="18"/>
<text text-anchor="middle" x="346.688" y="-157.8" font-family="Times,serif" font-size="14.00">User</text>
</g>
<!-- User&#45;&gt;Order -->
<g id="edge11" class="edge"><title>User&#45;&gt;Order</title>
<path fill="none" stroke="#abb14d" d="M329.993,-138.951C324.228,-131.336 317.74,-122.768 311.862,-115.004"/>
<ellipse fill="none" stroke="#abb14d" cx="332.511" cy="-142.276" rx="4.00002" ry="4.00002"/>
<polygon fill="#abb14d" stroke="#abb14d" points="311.821,-114.95 309.372,-104.261 308.803,-110.963 305.785,-106.977 305.785,-106.977 305.785,-106.977 308.803,-110.963 302.197,-109.694 311.821,-114.95 311.821,-114.95"/>
</g>
</g>
</svg>
